<?xml version="1.0" encoding="UTF-8" standalone="no"?>
<svg
   xmlns:dc="http://purl.org/dc/elements/1.1/"
   xmlns:cc="http://creativecommons.org/ns#"
   xmlns:rdf="http://www.w3.org/1999/02/22-rdf-syntax-ns#"
   xmlns:svg="http://www.w3.org/2000/svg"
   xmlns="http://www.w3.org/2000/svg"
   id="svg8"
   version="1.1"
   viewBox="0 0 75.746613 15.87002"
   height="15.87002mm"
   width="75.746613mm">
  <defs
     id="defs2" />
  <metadata
     id="metadata5">
    <rdf:RDF>
      <cc:Work
         rdf:about="">
        <dc:format>image/svg+xml</dc:format>
        <dc:type
           rdf:resource="http://purl.org/dc/dcmitype/StillImage" />
        <dc:title></dc:title>
      </cc:Work>
    </rdf:RDF>
  </metadata>
  <g
     transform="translate(-6.161251,-4.7019423)"
     id="layer1">
    <g
       style="font-style:normal;font-weight:normal;font-size:14.8167px;line-height:125%;font-family:sans-serif;letter-spacing:0px;word-spacing:0px;fill:#000000;fill-opacity:1;stroke:none;stroke-width:0.4;stroke-linecap:butt;stroke-linejoin:miter;stroke-miterlimit:4;stroke-dasharray:none;stroke-opacity:1"
       id="text835"
       aria-label="happy">
      <path
         id="path843"
         style="font-style:normal;font-variant:normal;font-weight:100;font-stretch:normal;font-size:14.8167px;font-family:Fortheenas_01;-inkscape-font-specification:'Fortheenas_01 Thin';stroke:#000000;stroke-width:0.4;stroke-miterlimit:4;stroke-dasharray:none;stroke-opacity:1"
         d="m 7.161251,5.7391839 h 0.2893887 v 4.2106052 q 2.5900283,-0.969452 3.9790943,-0.969452 0.774115,0 1.172024,0.3038581 0.709002,0.535369 0.709002,2.0257208 v 4.890668 h -0.289388 v -4.890668 q 0,-1.3456575 -0.593247,-1.7942099 -0.361736,-0.2749192 -1.056269,-0.2749192 -0.578777,0 -1.374596,0.1881026 -0.8826354,0.2098068 -2.5466203,0.8319925 v 5.939702 H 7.161251 Z" />
      <path
         id="path845"
         style="font-style:normal;font-variant:normal;font-weight:100;font-stretch:normal;font-size:14.8167px;font-family:Fortheenas_01;-inkscape-font-specification:'Fortheenas_01 Thin';stroke:#000000;stroke-width:0.4;stroke-miterlimit:4;stroke-dasharray:none;stroke-opacity:1"
         d="m 21.174898,12.720686 h -2.778131 q -1.121382,0 -1.692924,0.24598 -0.824758,0.361736 -0.824758,1.309484 0,0.795819 0.5209,1.229902 0.49196,0.412378 1.302249,0.412378 h 0.0217 q 0.839227,0 1.823148,-0.607716 0.340032,-0.209807 0.839228,-0.578777 0.709002,-0.528134 0.788584,-0.578777 z m 2.495977,3.074754 q -0.376205,0.441318 -1.085207,0.441318 -0.672829,0 -1.0418,-0.390675 -0.36897,-0.390674 -0.36897,-1.063503 v -0.282154 q -1.367362,0.991156 -1.620577,1.143085 -0.962217,0.564308 -1.830383,0.564308 h -0.0217 q -0.933279,0 -1.504821,-0.491961 -0.607717,-0.528134 -0.607717,-1.439708 0,-1.085208 0.90434,-1.526525 0.658359,-0.318328 1.902731,-0.318328 h 2.778131 v -1.063503 q 0,-1.005626 -0.296624,-1.352892 -0.672828,-0.7885846 -2.387456,-0.7885846 -0.78135,0 -1.396301,0.2966234 -0.745175,0.3472664 -0.940513,1.0128602 l -0.274919,-0.07958 q 0.224276,-0.7668797 1.034565,-1.1720238 0.694532,-0.3472664 1.577168,-0.3472664 1.844853,0 2.611733,0.8898701 0.354501,0.4268481 0.354501,1.5409951 v 3.414786 q 0.0072,1.164789 1.128616,1.164789 0.578777,0 0.868166,-0.340031 z" />
      <path
         id="path847"
         style="font-style:normal;font-variant:normal;font-weight:100;font-stretch:normal;font-size:14.8167px;font-family:Fortheenas_01;-inkscape-font-specification:'Fortheenas_01 Thin';stroke:#000000;stroke-width:0.4;stroke-miterlimit:4;stroke-dasharray:none;stroke-opacity:1"
         d="m 25.269748,14.934509 q 0.983921,1.01286 2.799835,1.01286 h 0.0217 q 1.555464,0 2.387456,-0.897105 0.824758,-0.882635 0.824758,-2.459803 0,-1.389066 -0.614951,-2.286171 -0.709002,-1.0345643 -2.025721,-1.0345643 -1.374596,0 -3.393082,0.9549823 z m 0,-5.9324678 v 0.9043396 q 1.960608,-0.9260437 3.393082,-0.9260437 1.446943,0 2.235528,1.1141459 0.694532,0.983922 0.694532,2.495978 0,1.700158 -0.911574,2.662376 -0.926044,0.983921 -2.611733,0.983921 -1.729097,0 -2.799835,-0.911574 v 4.210605 H 24.980359 V 9.0020412 Z" />
      <path
         id="path849"
         style="font-style:normal;font-variant:normal;font-weight:100;font-stretch:normal;font-size:14.8167px;font-family:Fortheenas_01;-inkscape-font-specification:'Fortheenas_01 Thin';stroke:#000000;stroke-width:0.4;stroke-miterlimit:4;stroke-dasharray:none;stroke-opacity:1"
         d="m 34.240794,14.934509 q 0.983922,1.01286 2.799836,1.01286 h 0.0217 q 1.555464,0 2.387456,-0.897105 0.824758,-0.882635 0.824758,-2.459803 0,-1.389066 -0.614951,-2.286171 -0.709002,-1.0345643 -2.02572,-1.0345643 -1.374597,0 -3.393083,0.9549823 z m 0,-5.9324678 v 0.9043396 q 1.960609,-0.9260437 3.393083,-0.9260437 1.446943,0 2.235527,1.1141459 0.694533,0.983922 0.694533,2.495978 0,1.700158 -0.911574,2.662376 -0.926044,0.983921 -2.611733,0.983921 -1.729098,0 -2.799836,-0.911574 v 4.210605 H 33.951406 V 9.0020412 Z" />
      <path
         id="path851"
         style="font-style:normal;font-variant:normal;font-weight:100;font-stretch:normal;font-size:14.8167px;font-family:Fortheenas_01;-inkscape-font-specification:'Fortheenas_01 Thin';stroke:#000000;stroke-width:0.4;stroke-miterlimit:4;stroke-dasharray:none;stroke-opacity:1"
         d="m 48.999618,16.627433 q -0.188103,1.389065 -1.070738,2.155945 -0.911574,0.788584 -2.409161,0.788584 -1.114146,-0.0072 -2.032955,-0.426848 -1.063503,-0.491961 -1.475882,-1.3963 l 0.260449,-0.12299 q 0.376206,0.831992 1.374597,1.27331 0.853696,0.38344 1.873791,0.38344 1.381831,0 2.206589,-0.709002 0.803054,-0.687299 0.976687,-1.953374 0.05064,-0.325562 0.05064,-0.882635 v -0.491961 q -1.707393,0.62942 -2.655141,0.839227 -0.709003,0.151929 -1.258841,0.151929 -0.803054,0 -1.244371,-0.332797 -0.701768,-0.528134 -0.701768,-2.025721 V 9.0020412 h 0.282154 V 13.87824 q 0,1.352892 0.593247,1.79421 0.361736,0.274919 1.056269,0.274919 0.578777,0 1.38183,-0.188102 0.882636,-0.202572 2.546621,-0.824758 V 9.0020412 h 0.282154 v 6.6921128 q 0,0.600482 -0.03617,0.933279 z" />
    </g>
    <g
       style="font-style:normal;font-weight:normal;font-size:14.8167px;line-height:125%;font-family:sans-serif;letter-spacing:0px;word-spacing:0px;fill:#000000;fill-opacity:1;stroke:none;stroke-width:0;stroke-linecap:butt;stroke-linejoin:miter;stroke-miterlimit:4;stroke-dasharray:none;stroke-opacity:1"
       id="text839"
       aria-label="DNS">
      <path
         id="path854"
         style="font-style:normal;font-variant:normal;font-weight:bold;font-stretch:normal;font-size:14.8167px;font-family:'Fortheenas_01 Bold';-inkscape-font-specification:'Fortheenas_01 Bold, Bold';opacity:1;stroke:none;stroke-width:0;stroke-miterlimit:4;stroke-dasharray:none;stroke-opacity:1"
         d="m 53.379768,14.709165 h 1.938904 q 1.960609,0 2.966234,-0.940514 0.983922,-0.911574 0.983922,-2.684079 0,-1.7869755 -0.991156,-2.7491928 Q 57.257577,7.344223 55.289734,7.344223 H 53.379768 Z M 55.289734,5.75982 q 2.626202,0 4.109319,1.4397087 1.475882,1.4252392 1.475882,3.8850433 0,2.452569 -1.490352,3.841634 -1.475882,1.367362 -4.094849,1.367362 H 51.773661 V 5.75982 Z" />
      <path
         id="path856"
         style="font-style:normal;font-variant:normal;font-weight:bold;font-stretch:normal;font-size:14.8167px;font-family:'Fortheenas_01 Bold';-inkscape-font-specification:'Fortheenas_01 Bold, Bold';opacity:1;stroke:none;stroke-width:0;stroke-miterlimit:4;stroke-dasharray:none;stroke-opacity:1"
         d="M 64.145027,8.7839316 V 16.293568 H 62.546154 V 5.75982 h 1.244371 l 5.975876,7.502401 V 5.75982 h 1.606108 v 10.533748 h -1.237137 z" />
      <path
         id="path858"
         style="font-style:normal;font-variant:normal;font-weight:bold;font-stretch:normal;font-size:14.8167px;font-family:'Fortheenas_01 Bold';-inkscape-font-specification:'Fortheenas_01 Bold, Bold';opacity:1;stroke:none;stroke-width:0;stroke-miterlimit:4;stroke-dasharray:none;stroke-opacity:1"
         d="m 76.755138,14.745338 h 0.0217 q 2.488743,0 2.488743,-1.468647 0,-0.600482 -0.636655,-0.926044 -0.477492,-0.24598 -2.004017,-0.564308 -1.663985,-0.347266 -2.380222,-0.759645 -1.323953,-0.76688 -1.323953,-2.2717012 0,-1.5771683 1.338423,-2.401926 1.034564,-0.6511245 2.597263,-0.6511245 1.338423,0 2.344048,0.5064302 1.316719,0.6511245 1.707394,2.6262021 L 79.330697,9.0950245 Q 79.084717,7.9085309 78.440827,7.6046728 77.782468,7.29358 76.856424,7.29358 q -1.070738,0 -1.714628,0.3762052 -0.614951,0.3617359 -0.614951,1.0852076 0,0.6221856 0.636655,0.9549826 0.491961,0.2532151 2.004017,0.5715426 1.67122,0.347266 2.372987,0.752411 1.331188,0.745175 1.331188,2.242762 0,3.05305 -4.116554,3.05305 -1.106912,-0.0072 -2.083598,-0.376205 -1.135851,-0.426848 -2.213824,-1.79421 l 1.323954,-0.911574 q 0.75241,0.962217 1.483116,1.237136 0.701768,0.253216 1.490352,0.26045 z" />
    </g>
  </g>
</svg>
